Coordinates
version=1
nRows=22
nColumns=24
inDegrees=yes

Units are S.I. units (second, meters, Newtons, ...)
Angles are in degrees.

endheader
time	pelvis_tilt	pelvis_list	pelvis_rotation	pelvis_tx	pelvis_ty	pelvis_tz	hip_flexion_r	hip_adduction_r	hip_rotation_r	knee_angle_r	ankle_angle_r	subtalar_angle_r	mtp_angle_r	hip_flexion_l	hip_adduction_l	hip_rotation_l	knee_angle_l	ankle_angle_l	subtalar_angle_l	mtp_angle_l	lumbar_extension	lumbar_bending	lumbar_rotation
      5.21500000	     -9.75568840	     -1.51488275	     11.46142222	     -1.80601006	     -0.02112105	     -0.29946990	     32.13158755	     -3.27116854	     -9.78861210	     -7.38086340	     -0.68885846	      7.32449490	     11.08044938	     -4.59866068	      0.20413805	     17.59744358	    -14.93233718	      4.70702939	      2.21591490	     16.25688511	      5.18556225	     -1.68927928	    -11.62000218
      5.22000000	     -9.79375656	     -1.63468068	     11.54210761	     -1.79942647	     -0.02184053	     -0.29902196	     32.14595503	     -3.14777906	     -9.91702260	     -7.95383162	     -1.15268422	      7.18086167	     11.64410036	     -4.67220419	     -0.02639106	     17.42008539	    -15.44160749	      4.61536435	      2.90502540	     16.30123644	      5.40924873	     -1.56605183	    -11.69703046
      5.22500000	     -9.89839637	     -1.74035911	     11.51950545	     -1.79284819	     -0.02262979	     -0.29844942	     32.27337584	     -2.99973122	     -9.91767835	     -8.57830229	     -1.75389685	      7.00287724	     12.38629587	     -4.66051548	     -0.22453254	     17.07539563	    -15.96659928	      4.40023431	      3.57862864	     16.68419109	      5.69941768	     -1.44946169	    -11.63968591
      5.23000000	     -9.97016216	     -1.82230956	     11.50750079	     -1.78628783	     -0.02328276	     -0.29790089	     32.33631367	     -2.87015138	     -9.82077290	     -9.10303538	     -2.78840733	      6.56282072	     13.97574276	     -4.68624174	     -0.40501195	     16.73890683	    -16.43520997	      3.84690982	      4.02489736	     17.60697750	      5.94462309	     -1.35028463	    -11.59531369
      5.23500000	    -10.05151087	     -2.02115427	     11.50294121	     -1.77969962	     -0.02389238	     -0.29733271	     32.45655974	     -2.63538672	     -9.86023086	     -9.73388973	     -3.47390938	      6.33037853	     14.50060188	     -4.63724823	     -0.70837834	     16.42054520	    -17.00902824	      3.50096242	      4.68614308	     18.13373410	      6.22893872	     -1.13163714	    -11.57359290
      5.24000000	    -10.13791741	     -2.27482691	     11.47268834	     -1.77315444	     -0.02445670	     -0.29672238	     32.60891267	     -2.32910172	     -9.80129141	    -10.39267291	     -4.13087363	      6.04815371	     14.80689241	     -4.53091230	     -1.06513425	     16.04524175	    -17.65225391	      3.16420389	      5.38811153	     18.67929076	      6.51831928	     -0.84686396	    -11.52271312
      5.24500000	    -10.23287416	     -2.52095136	     11.35035984	     -1.76661366	     -0.02491908	     -0.29594817	     32.79636143	     -1.96606943	     -9.58753447	    -11.06407765	     -4.90271111	      5.65221458	     15.15726148	     -4.40697817	     -1.42325146	     15.49388137	    -18.28534516	      2.66042841	      6.12757615	     19.44612045	      6.81191942	     -0.56752678	    -11.43055441
      5.25000000	    -10.32036225	     -2.81636149	     11.22197537	     -1.76003698	     -0.02525172	     -0.29519302	     32.97278958	     -1.54306829	     -9.29713024	    -11.72782234	     -5.67343668	      5.24285480	     15.46239060	     -4.25844361	     -1.83625695	     14.92815927	    -18.94093565	      2.01729354	      6.83358802	     20.35195755	      7.11513300	     -0.22881436	    -11.33080224
      5.25500000	    -10.39175738	     -3.15413761	     11.08098698	     -1.75349970	     -0.02550750	     -0.29444864	     33.15731532	     -1.06475885	     -8.93766539	    -12.44575138	     -6.32643531	      4.88142245	     15.60177949	     -4.07076284	     -2.29522242	     14.31919990	    -19.68016445	      1.36574931	      7.58950063	     21.21894046	      7.40049889	      0.17125084	    -11.18901229
      5.26000000	    -10.46286554	     -3.49659560	     10.90659341	     -1.74696385	     -0.02566301	     -0.29363806	     33.35578812	     -0.54700511	     -8.46833643	    -13.19990648	     -6.94598239	      4.46432627	     15.58716576	     -3.85759136	     -2.77015128	     13.63884344	    -20.44275618	      0.59133955	      8.38940980	     22.20771449	      7.68013056	      0.57841040	    -11.05098380
      5.26500000	    -10.51776733	     -3.84889586	     10.71458632	     -1.74041891	     -0.02572659	     -0.29281217	     33.54637575	      0.00434029	     -7.93173230	    -13.99265049	     -7.46871057	      4.05540031	     15.40896419	     -3.62876531	     -3.26787068	     12.90847547	    -21.24573033	     -0.28081313	      9.23436188	     23.27435579	      7.94266570	      1.00385876	    -10.90536372
      5.27000000	    -10.56524513	     -4.21080650	     10.50756850	     -1.73380390	     -0.02566441	     -0.29195597	     33.71904490	      0.59760498	     -7.34066511	    -14.78966189	     -7.93904887	      3.52681393	     14.87583448	     -3.40845136	     -3.78689584	     12.19750885	    -21.99637271	     -1.48817110	      9.89391414	     24.84921606	      8.20683776	      1.44168461	    -10.73826425
      5.27500000	    -10.57831548	     -4.56566241	     10.30260171	     -1.72722375	     -0.02557107	     -0.29113852	     33.85822696	      1.18609181	     -6.75141707	    -15.62175507	     -8.18199887	      3.17991705	     14.32232960	     -3.15302159	     -4.31650289	     11.38187063	    -22.89387492	     -2.57644302	     10.79725322	     26.04788554	      8.42165644	      1.88731826	    -10.59952540
      5.28000000	    -10.57716647	     -4.88831315	     10.11075163	     -1.72055022	     -0.02540878	     -0.29028280	     33.94757118	      1.76015045	     -6.09948769	    -16.43246425	     -8.30101737	      2.79934657	     13.73802994	     -2.89923098	     -4.83847204	     10.55740130	    -23.80693971	     -3.77519192	     11.79420777	     27.17484382	      8.62936912	      2.28288920	    -10.48111057
      5.28500000	    -10.55213769	     -5.19159119	      9.90112980	     -1.71390291	     -0.02518009	     -0.28944816	     33.99582925	      2.33191773	     -5.49923146	    -17.22367452	     -8.35703020	      2.42942887	     13.04807227	     -2.64304672	     -5.34784637	      9.72150486	    -24.75392615	     -5.14743092	     12.70447559	     28.41805574	      8.79427793	      2.68000788	    -10.34895805
      5.29000000	    -10.50383105	     -5.47777871	      9.69122001	     -1.70709043	     -0.02488402	     -0.28863595	     33.97428621	      2.89251059	     -5.02289143	    -17.97074097	     -8.22370613	      2.13591494	     12.27800350	     -2.42203082	     -5.85653944	      8.88730929	    -25.66521352	     -6.75175187	     13.49412632	     29.78891122	      8.96022516	      3.05976838	    -10.19017838
      5.29500000	    -10.45608632	     -5.72588794	      9.53097318	     -1.70037948	     -0.02459376	     -0.28785653	     33.90561540	      3.40140595	     -4.47104340	    -18.63999668	     -8.12568976	      1.77074451	     11.84497461	     -2.12773691	     -6.33207430	      8.13230126	    -26.71248633	     -8.26328086	     14.43877378	     30.66268895	      9.10369869	      3.38619271	    -10.13279923
      5.30000000	    -10.38836291	     -5.92870783	      9.37506931	     -1.69364963	     -0.02425315	     -0.28708677	     33.76773552	      3.86985088	     -4.00452869	    -19.23950871	     -7.95276823	      1.41533406	     11.47398111	     -1.84805292	     -6.76985451	      7.41293933	    -27.74790028	     -9.96769470	     15.27113670	     31.63096662	      9.21796124	      3.66757335	    -10.06114199
      5.30500000	    -10.30976705	     -6.10234227	      9.23121189	     -1.68693525	     -0.02390471	     -0.28639426	     33.57757108	      4.28062305	     -3.70420792	    -19.76949526	     -7.68481822	      1.27114311	     11.48500975	     -1.54286935	     -7.17276535	      6.76128923	    -28.87583119	    -11.57163742	     16.14321318	     31.95579323	      9.31551513	      3.92555760	     -9.98024448
      5.31000000	    -10.25024454	     -6.24642530	      9.12888423	     -1.68030854	     -0.02354082	     -0.28557482	     33.33536092	      4.69651919	     -3.21162807	    -20.17135118	     -7.53536358	      0.68469643	     11.27133923	     -1.18810637	     -7.55257679	      6.20963551	    -29.95158882	    -13.54753108	     16.69149967	     33.02725111	      9.41185405	      4.10690562	     -9.97545482
      5.31500000	    -10.19006485	     -6.41889111	      9.01646985	     -1.67365325	     -0.02319180	     -0.28491103	     33.06127242	      5.08986957	     -3.00978414	    -20.50604761	     -7.21974152	      0.52233862	     11.41666532	     -0.79053415	     -7.94770942	      5.68651941	    -31.14983179	    -15.28161987	     17.26947270	     33.17038320	      9.52488640	      4.34829330	     -9.93154520
      5.32000000	    -10.16931580	     -6.53259781	      8.93778832	     -1.66713794	     -0.02287148	     -0.28415840	     32.76857109	      5.44227937	     -2.66222536	    -20.72983604	     -7.02575266	     -0.00211113	     11.58371675	     -0.31487972	     -8.27294686	      5.27194933	    -32.34590218	    -17.17051452	     17.64182812	     33.59997809	      9.65061210	      4.49526155	     -9.93543994
